<svg width="59" height="70" viewBox="0 0 59 70" fill="none" xmlns="http://www.w3.org/2000/svg">
<g clip-path="url(#clip0_24_101)">
<path d="M29.2469 3.76308C30.1073 1.4662 28.7092 -1.00841 26.1433 -1.77403C23.5774 -2.53966 20.781 -1.29552 19.9206 0.987688L0.253946 53.4877C-0.606471 55.7846 0.791706 58.2592 3.35759 59.0248C5.92348 59.7904 8.71983 58.5463 9.58025 56.2631L29.2469 3.76308ZM40.1404 -1.93809C37.467 -2.33458 34.9318 -0.721296 34.4862 1.65761L24.6529 54.1576C24.2073 56.5365 26.0204 58.7924 28.6938 59.1889C31.3672 59.5853 33.9024 57.9721 34.348 55.5932L44.1813 3.09316C44.6269 0.71425 42.8138 -1.54161 40.1404 -1.93809ZM54.0761 -1.99278C51.3566 -1.99278 49.1594 -0.037703 49.1594 2.38222V54.8822C49.1594 57.3021 51.3566 59.2572 54.0761 59.2572C56.7956 59.2572 58.9927 57.3021 58.9927 54.8822V2.38222C58.9927 -0.037703 56.7956 -1.99278 54.0761 -1.99278Z" fill="black"/>
</g>
<defs>
<clipPath id="clip0_24_101">
<rect width="59" height="70" fill="white"/>
</clipPath>
</defs>
</svg>
